<svg xmlns="http://www.w3.org/2000/svg" xmlns:xlink="http://www.w3.org/1999/xlink" width="500" zoomAndPan="magnify" viewBox="0 0 375 374.999991" height="500" preserveAspectRatio="xMidYMid meet" version="1.0"><defs><clipPath id="2f3d036ae5"><path d="M 75.503906 59.507812 L 299.753906 59.507812 L 299.753906 123 L 75.503906 123 Z M 75.503906 59.507812 " clip-rule="nonzero"/></clipPath><clipPath id="116a57cda1"><path d="M 91 139 L 284 139 L 284 315.257812 L 91 315.257812 Z M 91 139 " clip-rule="nonzero"/></clipPath></defs><g clip-path="url(#2f3d036ae5)"><path fill="#a6a6a6" d="M 291.488281 90.90625 L 235.492188 90.90625 L 235.492188 67.507812 C 235.492188 63.109375 231.890625 59.507812 227.492188 59.507812 L 147.5 59.507812 C 143.097656 59.507812 139.5 63.109375 139.5 67.507812 L 139.5 90.90625 L 83.503906 90.90625 C 79.105469 90.90625 75.503906 94.507812 75.503906 98.90625 L 75.503906 114.90625 C 75.503906 119.304688 79.105469 122.902344 83.503906 122.902344 L 291.488281 122.902344 C 295.886719 122.902344 299.484375 119.304688 299.484375 114.90625 L 299.484375 98.90625 C 299.484375 94.507812 295.886719 90.90625 291.488281 90.90625 Z M 291.488281 90.90625 " fill-opacity="1" fill-rule="nonzero"/></g><g clip-path="url(#116a57cda1)"><path fill="#a6a6a6" d="M 110.703125 308.488281 C 111.101562 312.488281 114.5 315.488281 118.703125 315.488281 L 256.488281 315.488281 C 260.488281 315.488281 263.890625 312.488281 264.488281 308.488281 L 283.6875 139.703125 L 91.503906 139.703125 Z M 219.492188 282.488281 L 233.492188 170.699219 C 234.089844 166.300781 238.089844 163.300781 242.492188 163.699219 C 246.890625 164.300781 249.890625 168.300781 249.488281 172.699219 L 235.492188 284.488281 C 234.890625 288.488281 231.492188 291.488281 227.492188 291.488281 C 227.09375 291.488281 226.890625 291.488281 226.492188 291.488281 C 222.09375 290.890625 219.09375 286.890625 219.492188 282.488281 Z M 179.496094 171.699219 C 179.496094 167.300781 183.097656 163.699219 187.496094 163.699219 C 191.894531 163.699219 195.496094 167.300781 195.496094 171.699219 L 195.496094 283.488281 C 195.496094 287.890625 191.894531 291.488281 187.496094 291.488281 C 183.097656 291.488281 179.496094 287.890625 179.496094 283.488281 Z M 132.5 163.699219 C 136.898438 163.101562 140.898438 166.300781 141.5 170.699219 L 155.5 282.488281 C 156.097656 286.890625 152.898438 290.890625 148.5 291.488281 C 148.097656 291.488281 147.898438 291.488281 147.5 291.488281 C 143.5 291.488281 140.101562 288.488281 139.5 284.488281 L 125.5 172.699219 C 125.101562 168.300781 128.101562 164.300781 132.5 163.699219 Z M 132.5 163.699219 " fill-opacity="1" fill-rule="nonzero"/></g></svg>