<svg xmlns="http://www.w3.org/2000/svg" xmlns:xlink="http://www.w3.org/1999/xlink" width="500" zoomAndPan="magnify" viewBox="0 0 375 374.999991" height="500" preserveAspectRatio="xMidYMid meet" version="1.0"><defs><clipPath id="7b12f8fd7c"><path d="M 183 24.375 L 192 24.375 L 192 60 L 183 60 Z M 183 24.375 " clip-rule="nonzero"/></clipPath><clipPath id="0fdd8c44ac"><path d="M 100 282 L 275 282 L 275 350.625 L 100 350.625 Z M 100 282 " clip-rule="nonzero"/></clipPath></defs><g clip-path="url(#7b12f8fd7c)"><path fill="#ff5757" d="M 187.296875 59.542969 C 185.003906 59.542969 183.148438 57.675781 183.148438 55.382812 L 183.148438 28.65625 C 183.148438 26.363281 185.003906 24.496094 187.296875 24.496094 C 189.585938 24.496094 191.441406 26.363281 191.441406 28.65625 L 191.441406 55.382812 C 191.441406 57.675781 189.585938 59.542969 187.296875 59.542969 " fill-opacity="1" fill-rule="nonzero"/></g><path fill="#ff5757" d="M 150.667969 65.996094 C 148.976562 65.996094 147.382812 64.945312 146.769531 63.265625 L 136.933594 36.230469 C 136.160156 34.085938 137.269531 31.707031 139.414062 30.917969 C 141.574219 30.128906 143.953125 31.253906 144.726562 33.398438 L 154.566406 60.433594 C 155.355469 62.582031 154.246094 64.960938 152.097656 65.75 C 151.632812 65.910156 151.152344 65.996094 150.667969 65.996094 " fill-opacity="1" fill-rule="nonzero"/><path fill="#ff5757" d="M 116.394531 82.507812 C 115.210938 82.507812 114.027344 81.996094 113.210938 81.019531 L 95.210938 59.574219 C 93.738281 57.820312 93.96875 55.195312 95.722656 53.71875 C 97.472656 52.246094 100.101562 52.480469 101.574219 54.230469 L 119.574219 75.691406 C 121.035156 77.441406 120.816406 80.054688 119.050781 81.53125 C 118.277344 82.1875 117.328125 82.507812 116.394531 82.507812 " fill-opacity="1" fill-rule="nonzero"/><path fill="#ff5757" d="M 94.496094 105.324219 C 93.78125 105.324219 93.066406 105.148438 92.421875 104.769531 L 66.949219 90.070312 C 64.964844 88.917969 64.277344 86.390625 65.429688 84.40625 C 66.570312 82.421875 69.109375 81.734375 71.09375 82.886719 L 96.570312 97.585938 C 98.554688 98.726562 99.238281 101.265625 98.085938 103.25 C 97.3125 104.578125 95.925781 105.324219 94.496094 105.324219 " fill-opacity="1" fill-rule="nonzero"/><path fill="#ff5757" d="M 284.183594 110.988281 C 282.738281 110.988281 281.351562 110.242188 280.578125 108.914062 C 279.4375 106.929688 280.109375 104.390625 282.09375 103.238281 L 303.90625 90.652344 C 305.890625 89.515625 308.429688 90.1875 309.570312 92.171875 C 310.722656 94.15625 310.035156 96.695312 308.050781 97.851562 L 286.257812 110.433594 C 285.597656 110.8125 284.882812 110.988281 284.183594 110.988281 " fill-opacity="1" fill-rule="nonzero"/><path fill="#ff5757" d="M 260.402344 84.871094 C 259.46875 84.871094 258.519531 84.550781 257.746094 83.894531 C 255.996094 82.421875 255.761719 79.808594 257.234375 78.054688 L 274.679688 57.265625 C 276.152344 55.515625 278.765625 55.28125 280.519531 56.757812 C 282.269531 58.214844 282.503906 60.84375 281.03125 62.597656 L 263.585938 83.382812 C 262.769531 84.363281 261.585938 84.871094 260.402344 84.871094 " fill-opacity="1" fill-rule="nonzero"/><path fill="#ff5757" d="M 223.90625 68.085938 C 223.441406 68.085938 222.957031 67.996094 222.492188 67.835938 C 220.332031 67.046875 219.222656 64.667969 220.011719 62.507812 L 229.789062 35.648438 C 230.578125 33.488281 232.945312 32.378906 235.105469 33.164062 C 237.265625 33.941406 238.375 36.332031 237.585938 38.480469 L 227.804688 65.355469 C 227.191406 67.035156 225.601562 68.085938 223.90625 68.085938 " fill-opacity="1" fill-rule="nonzero"/><path fill="#ff5757" d="M 266.257812 121.894531 C 265.21875 121.894531 264.183594 121.5 263.382812 120.726562 C 242.886719 101.03125 215.9375 90.1875 187.5 90.1875 C 159.0625 90.1875 132.113281 101.03125 111.617188 120.726562 C 109.96875 122.316406 107.34375 122.273438 105.75 120.609375 C 104.175781 118.960938 104.21875 116.332031 105.867188 114.738281 C 127.910156 93.558594 156.902344 81.878906 187.5 81.878906 C 218.097656 81.878906 247.089844 93.558594 269.132812 114.738281 C 270.78125 116.332031 270.824219 118.960938 269.25 120.609375 C 268.433594 121.457031 267.335938 121.894531 266.257812 121.894531 " fill-opacity="1" fill-rule="nonzero"/><g clip-path="url(#0fdd8c44ac)"><path fill="#ff5757" d="M 187.207031 350.878906 C 124.625 350.878906 100.84375 332.734375 100.84375 332.734375 C 105.398438 318.953125 113.152344 299.480469 122.875 290.734375 C 145.269531 270.589844 156.289062 292.558594 187.207031 292.558594 C 218.140625 292.558594 229.164062 270.589844 251.554688 290.734375 C 261.703125 299.859375 269.703125 320.644531 274.15625 334.484375 C 274.15625 334.484375 258.082031 350.878906 187.207031 350.878906 " fill-opacity="1" fill-rule="nonzero"/></g><path fill="#ff5757" d="M 240.140625 202.621094 C 240.140625 239.394531 216.449219 269.1875 187.207031 269.1875 C 157.984375 269.1875 134.289062 239.394531 134.289062 202.621094 C 134.289062 165.863281 157.984375 136.054688 187.207031 136.054688 C 216.449219 136.054688 240.140625 165.863281 240.140625 202.621094 " fill-opacity="1" fill-rule="nonzero"/><path fill="#ff5757" d="M 108.289062 181.585938 C 108.289062 209.992188 89.96875 233.027344 67.386719 233.027344 C 44.804688 233.027344 26.496094 209.992188 26.496094 181.585938 C 26.496094 153.175781 44.804688 130.140625 67.386719 130.140625 C 89.96875 130.140625 108.289062 153.175781 108.289062 181.585938 " fill-opacity="1" fill-rule="nonzero"/><path fill="#ff5757" d="M 348.066406 181.585938 C 348.066406 209.992188 329.757812 233.027344 307.175781 233.027344 C 284.578125 233.027344 266.269531 209.992188 266.269531 181.585938 C 266.269531 153.175781 284.578125 130.140625 307.175781 130.140625 C 329.757812 130.140625 348.066406 153.175781 348.066406 181.585938 " fill-opacity="1" fill-rule="nonzero"/><path fill="#ff5757" d="M 356.894531 249.671875 C 339.582031 234.109375 331.058594 251.085938 307.175781 251.085938 C 283.277344 251.085938 274.753906 234.109375 257.453125 249.671875 C 253.277344 253.421875 245.441406 261.40625 240.972656 268.664062 C 247.949219 270.28125 254.652344 273.992188 261.265625 279.933594 C 265.175781 283.449219 268.929688 288.222656 272.546875 294.195312 C 328.167969 307.757812 374.355469 283.480469 374.355469 283.480469 C 370.910156 272.777344 364.734375 256.722656 356.894531 249.671875 " fill-opacity="1" fill-rule="nonzero"/><path fill="#ff5757" d="M 113.167969 279.933594 C 119.765625 274.003906 126.4375 270.296875 133.386719 268.675781 C 128.742188 261.335938 121.238281 253.394531 117.109375 249.671875 C 99.808594 234.109375 91.285156 251.085938 67.386719 251.085938 C 43.488281 251.085938 34.980469 234.109375 17.664062 249.671875 C 10.148438 256.429688 4.164062 271.464844 0.644531 282.121094 C 0.644531 282.121094 45.882812 304.953125 102.203125 293.667969 C 105.722656 287.945312 109.386719 283.347656 113.167969 279.933594 " fill-opacity="1" fill-rule="nonzero"/></svg>