<svg xmlns="http://www.w3.org/2000/svg" xmlns:xlink="http://www.w3.org/1999/xlink" width="500" zoomAndPan="magnify" viewBox="0 0 375 374.999991" height="500" preserveAspectRatio="xMidYMid meet" version="1.0"><defs><clipPath id="e30b8e013e"><path d="M 80 93.5625 L 295 93.5625 L 295 281.8125 L 80 281.8125 Z M 80 93.5625 " clip-rule="nonzero"/></clipPath></defs><g clip-path="url(#e30b8e013e)"><path fill="#a6a6a6" d="M 277.105469 110.714844 C 266.039062 99.648438 251.324219 93.550781 235.675781 93.550781 C 220.027344 93.550781 205.3125 99.644531 194.25 110.714844 L 187.527344 117.429688 L 180.804688 110.707031 C 169.738281 99.644531 155.027344 93.546875 139.375 93.546875 C 123.722656 93.546875 109.011719 99.640625 97.945312 110.707031 C 75.101562 133.554688 75.101562 170.722656 97.945312 193.566406 L 184.617188 280.238281 C 185.417969 281.039062 186.472656 281.445312 187.527344 281.445312 C 188.578125 281.445312 189.632812 281.039062 190.433594 280.238281 L 277.105469 193.566406 C 299.949219 170.726562 299.949219 133.554688 277.105469 110.710938 Z M 277.105469 110.714844 " fill-opacity="1" fill-rule="nonzero"/></g></svg>