<svg xmlns="http://www.w3.org/2000/svg" xmlns:xlink="http://www.w3.org/1999/xlink" width="500" zoomAndPan="magnify" viewBox="0 0 375 374.999991" height="500" preserveAspectRatio="xMidYMid meet" version="1.0"><defs><clipPath id="1321ac5adf"><path d="M 43.671875 88 L 331 88 L 331 359.574219 L 43.671875 359.574219 Z M 43.671875 88 " clip-rule="nonzero"/></clipPath></defs><g clip-path="url(#1321ac5adf)"><path fill="#ff5757" d="M 329.382812 210.386719 L 193.625 90.464844 C 190.101562 87.355469 184.824219 87.355469 181.300781 90.464844 L 45.542969 210.386719 C 44.542969 211.269531 43.96875 212.539062 43.96875 213.875 L 43.96875 354.921875 C 43.96875 357.492188 46.054688 359.574219 48.621094 359.574219 L 144.054688 359.574219 C 146.621094 359.574219 148.707031 357.492188 148.707031 354.921875 L 148.707031 264.835938 C 148.707031 254.558594 157.035156 246.226562 167.316406 246.226562 L 207.609375 246.226562 C 217.890625 246.226562 226.21875 254.558594 226.21875 264.835938 L 226.21875 354.921875 C 226.21875 357.492188 228.304688 359.574219 230.871094 359.574219 L 326.304688 359.574219 C 328.871094 359.574219 330.957031 357.492188 330.957031 354.921875 L 330.957031 213.875 C 330.957031 212.539062 330.382812 211.269531 329.382812 210.386719 " fill-opacity="1" fill-rule="nonzero"/></g><path fill="#ff5757" d="M 366.785156 163.851562 L 212.03125 27.847656 C 197.980469 15.5 176.945312 15.5 162.894531 27.847656 L 8.140625 163.851562 C 0.511719 170.5625 0.132812 182.3125 7.316406 189.496094 C 13.878906 196.058594 24.410156 196.390625 31.367188 190.257812 L 175.164062 63.609375 C 182.195312 57.417969 192.730469 57.417969 199.761719 63.605469 L 343.558594 190.257812 C 350.519531 196.390625 361.050781 196.058594 367.609375 189.496094 C 374.792969 182.3125 374.414062 170.558594 366.785156 163.851562 " fill-opacity="1" fill-rule="nonzero"/></svg>