<svg xmlns="http://www.w3.org/2000/svg" xmlns:xlink="http://www.w3.org/1999/xlink" width="500" zoomAndPan="magnify" viewBox="0 0 375 374.999991" height="500" preserveAspectRatio="xMidYMid meet" version="1.0"><path fill="#a6a6a6" d="M 177.953125 192.792969 C 200.09375 199.378906 224.105469 181.828125 223.757812 158.101562 C 221.78125 110.328125 153.617188 110.328125 151.644531 158.101562 C 151.644531 174.585938 162.792969 188.542969 177.953125 192.792969 Z M 177.953125 192.792969 " fill-opacity="1" fill-rule="nonzero"/><path fill="#a6a6a6" d="M 245.816406 250.546875 C 241.082031 222.792969 216.816406 201.617188 187.699219 201.617188 C 154.8125 201.375 127.28125 229.703125 128.945312 261.859375 C 129.464844 263.460938 130.988281 264.546875 132.714844 264.546875 L 242.6875 264.546875 C 249.304688 263.988281 246.03125 254.753906 245.816406 250.546875 Z M 245.816406 250.546875 " fill-opacity="1" fill-rule="nonzero"/><path fill="#a6a6a6" d="M 257.6875 204.746094 C 272.207031 204.746094 284.039062 192.914062 284.039062 178.394531 C 282.714844 143.539062 232.65625 143.550781 231.335938 178.394531 C 231.335938 192.914062 243.167969 204.746094 257.6875 204.746094 Z M 257.6875 204.746094 " fill-opacity="1" fill-rule="nonzero"/><path fill="#a6a6a6" d="M 257.6875 207.554688 C 250.226562 207.554688 242.847656 209.519531 236.429688 213.25 C 238.316406 215.214844 240.039062 217.339844 241.644531 219.546875 C 248.878906 229.308594 253.398438 241.441406 254.277344 253.835938 C 254.277344 253.835938 295.988281 253.835938 295.988281 253.835938 C 298.195312 253.835938 300 252.03125 300 249.824219 C 300 226.523438 281.03125 207.554688 257.6875 207.554688 Z M 257.6875 207.554688 " fill-opacity="1" fill-rule="nonzero"/><path fill="#a6a6a6" d="M 117.714844 204.746094 C 132.234375 204.746094 144.0625 192.914062 144.0625 178.394531 C 142.742188 143.539062 92.679688 143.550781 91.363281 178.394531 C 91.363281 192.914062 103.195312 204.746094 117.714844 204.746094 Z M 117.714844 204.746094 " fill-opacity="1" fill-rule="nonzero"/><path fill="#a6a6a6" d="M 138.96875 213.25 C 111.621094 196.761719 74.832031 217.839844 75.402344 249.828125 C 75.402344 252.03125 77.207031 253.835938 79.410156 253.835938 L 121.125 253.835938 C 122.207031 238.617188 128.664062 224.171875 138.96875 213.25 Z M 138.96875 213.25 " fill-opacity="1" fill-rule="nonzero"/></svg>