<svg xmlns="http://www.w3.org/2000/svg" xmlns:xlink="http://www.w3.org/1999/xlink" width="500" zoomAndPan="magnify" viewBox="0 0 375 374.999991" height="500" preserveAspectRatio="xMidYMid meet" version="1.0"><defs><clipPath id="d637921b1c"><path d="M 50 29.195312 L 324 29.195312 L 324 345.695312 L 50 345.695312 Z M 50 29.195312 " clip-rule="nonzero"/></clipPath></defs><g clip-path="url(#d637921b1c)"><path fill="#ff5757" d="M 66.0625 289.832031 L 131.21875 289.832031 L 131.21875 290.035156 C 131.21875 320.777344 156.242188 345.800781 186.984375 345.800781 C 217.726562 345.800781 242.746094 320.777344 242.746094 290.035156 L 242.746094 289.832031 L 307.90625 289.832031 C 316.28125 289.832031 323.226562 282.988281 323.226562 274.511719 C 323.226562 266.035156 316.28125 259.191406 307.90625 259.191406 L 294.015625 259.191406 L 294.015625 159.308594 C 294.015625 105.585938 254.082031 61.058594 202.304688 53.601562 L 202.304688 44.511719 C 202.304688 36.035156 195.460938 29.195312 186.984375 29.195312 C 178.507812 29.195312 171.664062 36.035156 171.664062 44.511719 L 171.664062 53.601562 C 119.882812 61.058594 79.949219 105.585938 79.949219 159.308594 L 79.949219 259.191406 L 66.0625 259.191406 C 57.6875 259.191406 50.742188 266.035156 50.742188 274.511719 C 50.742188 282.988281 57.6875 289.832031 66.0625 289.832031 Z M 161.859375 289.832031 L 212.109375 289.832031 L 212.109375 290.035156 C 212.109375 303.925781 200.769531 315.160156 186.984375 315.160156 C 173.195312 315.160156 161.859375 303.925781 161.859375 290.035156 Z M 161.859375 289.832031 " fill-opacity="1" fill-rule="nonzero"/></g></svg>