<svg xmlns="http://www.w3.org/2000/svg" xmlns:xlink="http://www.w3.org/1999/xlink" width="500" zoomAndPan="magnify" viewBox="0 0 375 374.999991" height="500" preserveAspectRatio="xMidYMid meet" version="1.0"><defs><clipPath id="67a3cdd625"><path d="M 11.105469 198 L 358 198 L 358 375 L 11.105469 375 Z M 11.105469 198 " clip-rule="nonzero"/></clipPath></defs><path fill="#ff5757" d="M 184.730469 197.664062 C 235.742188 197.664062 277.238281 143.523438 277.238281 92.515625 C 277.238281 41.507812 235.742188 0 184.730469 0 C 133.71875 0 92.21875 41.507812 92.21875 92.515625 C 92.230469 143.519531 133.722656 197.664062 184.730469 197.664062 Z M 184.730469 197.664062 " fill-opacity="1" fill-rule="nonzero"/><g clip-path="url(#67a3cdd625)"><path fill="#ff5757" d="M 254.179688 198.613281 C 236.234375 212.285156 213.847656 220.417969 189.601562 220.417969 L 179.863281 220.417969 C 155.609375 220.417969 133.21875 212.28125 115.277344 198.613281 C 56.6875 208.085938 11.945312 258.871094 11.945312 320.128906 C 11.945312 353.78125 89.304688 381.070312 184.730469 381.070312 C 280.15625 381.070312 357.515625 353.78125 357.515625 320.128906 C 357.515625 258.871094 312.769531 208.085938 254.179688 198.613281 Z M 254.179688 198.613281 " fill-opacity="1" fill-rule="nonzero"/></g></svg>