<svg xmlns="http://www.w3.org/2000/svg" xmlns:xlink="http://www.w3.org/1999/xlink" width="500" zoomAndPan="magnify" viewBox="0 0 375 374.999991" height="500" preserveAspectRatio="xMidYMid meet" version="1.0"><defs><clipPath id="b32d4d4216"><path d="M 75 88.808594 L 300 88.808594 L 300 286.339844 L 75 286.339844 Z M 75 88.808594 " clip-rule="nonzero"/></clipPath></defs><g clip-path="url(#b32d4d4216)"><path fill="#a6a6a6" d="M 300 175.5 L 300 186.644531 C 300 187.144531 299.699219 187.664062 299.640625 188.183594 C 298.042969 204.261719 291.671875 219.484375 281.363281 231.910156 C 267.839844 248.628906 250.5 259.652344 230.246094 266.546875 C 217.023438 271.039062 203.140625 273.316406 189.15625 273.296875 C 177.433594 273.15625 165.726562 272.179688 154.121094 270.402344 C 152.203125 270.042969 150.207031 270.402344 148.507812 271.398438 C 136.125 278.871094 122.339844 283.683594 108 285.542969 C 103.183594 286.140625 98.351562 286.402344 93.496094 286.339844 C 91.878906 286.28125 90.339844 285.660156 89.140625 284.5625 C 87.945312 283.464844 87.183594 281.964844 87.003906 280.367188 C 86.824219 278.769531 87.203125 277.152344 88.125 275.792969 C 88.742188 274.796875 89.441406 273.816406 90.222656 272.898438 C 96.59375 264.96875 101.988281 256.296875 106.28125 247.070312 C 106.582031 246.648438 106.699219 246.109375 106.621094 245.589844 C 106.519531 245.074219 106.199219 244.613281 105.761719 244.332031 C 97.929688 237.640625 91.261719 229.710938 86.027344 220.863281 C 81.589844 213.351562 78.457031 205.183594 76.71875 196.652344 C 76.058594 193.355469 75.558594 189.902344 75 186.644531 L 75 175.5 C 75.160156 174.859375 75.300781 174.242188 75.398438 173.582031 C 76.757812 160.316406 81.410156 147.59375 88.902344 136.566406 C 97.152344 124.582031 107.898438 114.515625 120.402344 107.085938 C 132.449219 99.753906 145.691406 94.558594 159.515625 91.761719 C 181.109375 87.148438 203.519531 87.929688 224.753906 94 C 236.757812 97.355469 248.144531 102.609375 258.511719 109.519531 C 270.015625 117.089844 279.785156 126.980469 287.234375 138.542969 C 292.527344 146.695312 296.285156 155.742188 298.242188 165.273438 C 298.921875 168.667969 299.421875 172.082031 300 175.5 " fill-opacity="1" fill-rule="nonzero"/></g></svg>