<svg xmlns="http://www.w3.org/2000/svg" xmlns:xlink="http://www.w3.org/1999/xlink" width="500" zoomAndPan="magnify" viewBox="0 0 375 374.999991" height="500" preserveAspectRatio="xMidYMid meet" version="1.0"><defs><clipPath id="01c1498096"><path d="M 78 59 L 299.992188 59 L 299.992188 207 L 78 207 Z M 78 59 " clip-rule="nonzero"/></clipPath></defs><path fill="#a6a6a6" d="M 78.359375 265.449219 C 75 268.238281 75 272.757812 78.359375 275.546875 L 122.898438 312.507812 C 127.101562 315.992188 133.910156 315.992188 138.109375 312.507812 C 142.308594 309.019531 142.308594 303.371094 138.109375 299.882812 L 113.449219 279.421875 L 242.359375 279.421875 C 272.058594 279.421875 296.136719 259.441406 296.136719 234.796875 L 296.136719 177.679688 C 296.136719 172.753906 291.320312 168.757812 285.378906 168.757812 C 279.441406 168.757812 274.625 172.753906 274.625 177.679688 L 274.625 234.796875 C 274.625 249.585938 260.179688 261.574219 242.359375 261.574219 L 113.449219 261.574219 L 138.109375 241.109375 C 142.308594 237.625 142.308594 231.972656 138.109375 228.488281 C 133.910156 225.003906 127.101562 225.003906 122.898438 228.488281 Z M 78.359375 265.449219 " fill-opacity="1" fill-rule="nonzero"/><g clip-path="url(#01c1498096)"><path fill="#a6a6a6" d="M 296.65625 109.546875 C 300.015625 106.761719 300.015625 102.238281 296.65625 99.453125 L 252.113281 62.492188 C 247.914062 59.003906 241.105469 59.003906 236.90625 62.492188 C 232.703125 65.976562 232.703125 71.625 236.90625 75.113281 L 261.566406 95.574219 L 132.65625 95.574219 C 102.957031 95.574219 78.878906 115.554688 78.878906 140.199219 L 78.878906 197.316406 C 78.878906 202.246094 83.695312 206.238281 89.636719 206.238281 C 95.574219 206.238281 100.390625 202.246094 100.390625 197.316406 L 100.390625 140.199219 C 100.390625 125.410156 114.835938 113.425781 132.65625 113.425781 L 261.566406 113.425781 L 236.90625 133.886719 C 232.703125 137.371094 232.703125 143.023438 236.90625 146.507812 C 241.105469 149.992188 247.914062 149.992188 252.113281 146.507812 Z M 296.65625 109.546875 " fill-opacity="1" fill-rule="nonzero"/></g></svg>