<svg xmlns="http://www.w3.org/2000/svg" xmlns:xlink="http://www.w3.org/1999/xlink" width="500" zoomAndPan="magnify" viewBox="0 0 375 374.999991" height="500" preserveAspectRatio="xMidYMid meet" version="1.0"><defs><clipPath id="0cfefe20bf"><path d="M 58 98 L 249 98 L 249 279.210938 L 58 279.210938 Z M 58 98 " clip-rule="nonzero"/></clipPath><clipPath id="3a84547d5b"><path d="M 126 95.460938 L 317 95.460938 L 317 276 L 126 276 Z M 126 95.460938 " clip-rule="nonzero"/></clipPath></defs><g clip-path="url(#0cfefe20bf)"><path fill="#60b7fe" d="M 118.042969 279.21875 C 101.066406 279.21875 87.175781 265.355469 87.175781 248.40625 L 87.175781 150.261719 L 65.359375 150.261719 C 59.464844 150.261719 56.417969 143.25 60.445312 138.953125 L 98.113281 98.78125 L 135.785156 138.953125 C 139.8125 143.25 136.765625 150.261719 130.871094 150.261719 L 109.054688 150.261719 L 109.054688 248.40625 C 109.054688 253.296875 113.140625 257.378906 118.042969 257.378906 L 208.914062 257.378906 L 172.203125 193.441406 L 248.628906 279.21875 C 205.097656 279.21875 161.570312 279.21875 118.042969 279.21875 Z M 118.042969 279.21875 " fill-opacity="1" fill-rule="evenodd"/></g><g clip-path="url(#3a84547d5b)"><path fill="#19cfba" d="M 256.957031 95.453125 C 273.933594 95.453125 287.824219 109.316406 287.824219 126.265625 L 287.824219 224.410156 L 309.640625 224.410156 C 315.535156 224.410156 318.582031 231.421875 314.554688 235.71875 L 276.886719 275.890625 L 239.214844 235.71875 C 235.1875 231.421875 238.234375 224.410156 244.128906 224.410156 L 265.945312 224.410156 L 265.945312 126.265625 C 265.945312 121.375 261.859375 117.292969 256.957031 117.292969 L 166.085938 117.292969 L 202.792969 181.230469 L 126.371094 95.453125 C 169.902344 95.453125 213.429688 95.453125 256.957031 95.453125 Z M 256.957031 95.453125 " fill-opacity="1" fill-rule="evenodd"/></g></svg>