<svg xmlns="http://www.w3.org/2000/svg" xmlns:xlink="http://www.w3.org/1999/xlink" width="500" zoomAndPan="magnify" viewBox="0 0 375 374.999991" height="500" preserveAspectRatio="xMidYMid meet" version="1.0"><path fill="#ff5757" d="M 187.5 0 C 84.125 0 0 84.125 0 187.5 C 0 290.875 84.125 375 187.5 375 C 290.875 375 375 290.875 375 187.5 C 375 84.125 290.875 0 187.5 0 Z M 283 283 C 280.625 285.5 277.375 286.75 274.25 286.75 C 271 286.75 267.75 285.5 265.375 283 L 214.375 232 C 199.5 243 181.875 248.625 164.125 248.625 C 142.5 248.625 120.875 240.375 104.5 223.875 C 71.5 191 71.5 137.375 104.5 104.5 C 137.375 71.5 190.875 71.5 223.875 104.5 C 253.875 134.375 256.5 181.25 232 214.375 L 283 265.375 C 287.875 270.25 287.875 278.125 283 283 Z M 283 283 " fill-opacity="1" fill-rule="nonzero"/><path fill="#ff5757" d="M 164.125 104.75 C 149 104.75 133.75 110.5 122.125 122.125 C 99 145.25 99 183 122.125 206.25 C 145.25 229.375 183 229.375 206.25 206.25 C 229.375 183 229.375 145.25 206.25 122.125 C 194.625 110.5 179.375 104.75 164.125 104.75 Z M 164.125 104.75 " fill-opacity="1" fill-rule="nonzero"/></svg>