<svg xmlns="http://www.w3.org/2000/svg" xmlns:xlink="http://www.w3.org/1999/xlink" width="500" zoomAndPan="magnify" viewBox="0 0 375 374.999991" height="500" preserveAspectRatio="xMidYMid meet" version="1.0"><defs><clipPath id="3a3260acba"><path d="M 75 75 L 300 75 L 300 300 L 75 300 Z M 75 75 " clip-rule="nonzero"/></clipPath></defs><g clip-path="url(#3a3260acba)"><path fill="#a6a6a6" d="M 259.675781 219.207031 C 248.085938 219.207031 237.675781 224.148438 230.328125 231.996094 L 155.429688 190.398438 C 155.460938 189.628906 155.53125 188.863281 155.53125 188.046875 C 155.53125 187.429688 155.453125 186.792969 155.433594 186.179688 L 231.324219 144.042969 C 238.609375 151.265625 248.609375 155.730469 259.671875 155.730469 C 281.90625 155.730469 299.953125 137.65625 299.953125 115.367188 C 299.960938 93.054688 281.914062 74.980469 259.675781 74.980469 C 237.460938 74.980469 219.414062 93.054688 219.414062 115.367188 C 219.414062 116.546875 219.496094 117.746094 219.601562 118.929688 L 144.660156 160.53125 C 137.296875 152.660156 126.890625 147.675781 115.257812 147.675781 C 93.015625 147.675781 74.984375 165.742188 74.984375 188.058594 C 74.984375 210.347656 93.015625 228.4375 115.257812 228.4375 C 126.710938 228.4375 137.019531 223.628906 144.355469 215.921875 L 219.507812 257.65625 C 219.496094 258.292969 219.417969 258.917969 219.417969 259.585938 C 219.417969 281.898438 237.460938 299.960938 259.679688 299.960938 C 281.910156 299.960938 299.957031 281.898438 299.957031 259.585938 C 299.960938 237.273438 281.914062 219.207031 259.675781 219.207031 Z M 259.675781 219.207031 " fill-opacity="1" fill-rule="nonzero"/></g></svg>