<svg xmlns="http://www.w3.org/2000/svg" xmlns:xlink="http://www.w3.org/1999/xlink" width="500" zoomAndPan="magnify" viewBox="0 0 375 374.999991" height="500" preserveAspectRatio="xMidYMid meet" version="1.0"><path fill="#ff5757" d="M 308.007812 187.832031 C 300.667969 187.832031 294.660156 193.839844 294.660156 201.179688 L 294.660156 326.957031 C 294.660156 338.566406 285.1875 348.042969 273.578125 348.042969 L 48.375 348.042969 C 36.765625 348.042969 27.289062 338.566406 27.289062 326.957031 L 27.289062 101.757812 C 27.289062 90.148438 36.765625 80.671875 48.375 80.671875 L 174.15625 80.671875 C 181.496094 80.671875 187.5 74.667969 187.5 67.328125 C 187.5 59.988281 181.496094 53.980469 174.15625 53.980469 L 48.375 53.980469 C 22.019531 53.980469 0.601562 75.398438 0.601562 101.757812 L 0.601562 326.957031 C 0.601562 353.3125 22.019531 374.734375 48.375 374.734375 L 273.578125 374.734375 C 299.933594 374.734375 321.351562 353.3125 321.351562 326.957031 L 321.351562 201.179688 C 321.351562 193.839844 315.347656 187.832031 308.007812 187.832031 Z M 308.007812 187.832031 " fill-opacity="1" fill-rule="nonzero"/><path fill="#ff5757" d="M 359.386719 15.8125 L 352.445312 9.542969 C 345.375 3.136719 336.230469 -0.132812 326.757812 0.332031 C 317.214844 0.800781 308.472656 4.9375 302.070312 12.011719 C 299.800781 14.546875 298.066406 17.347656 296.664062 20.21875 C 294.863281 19.484375 292.859375 19.015625 290.859375 19.148438 C 287.320312 19.351562 283.984375 20.886719 281.648438 23.488281 L 138.523438 181.359375 C 136.921875 183.164062 135.789062 185.363281 135.320312 187.699219 L 122.242188 253.292969 C 121.308594 257.894531 122.910156 262.632812 126.378906 265.769531 C 128.847656 268.039062 132.050781 269.238281 135.320312 269.238281 C 136.589844 269.238281 137.921875 269.039062 139.191406 268.640625 L 203.179688 249.289062 C 205.515625 248.621094 207.585938 247.285156 209.1875 245.484375 L 352.3125 87.609375 C 356.25 83.273438 356.71875 77.136719 354.113281 72.332031 C 356.917969 70.597656 359.519531 68.59375 361.789062 66.125 C 375 51.578125 373.933594 29.027344 359.386719 15.8125 Z M 321.886719 29.894531 C 323.488281 28.160156 325.691406 27.089844 328.089844 26.957031 C 328.226562 26.957031 328.359375 26.957031 328.558594 26.957031 C 330.761719 26.957031 332.894531 27.757812 334.5625 29.292969 L 341.4375 35.566406 C 345.105469 38.902344 345.375 44.574219 342.039062 48.242188 C 340.4375 50.042969 338.234375 51.046875 335.832031 51.179688 C 333.496094 51.246094 331.160156 50.445312 329.425781 48.910156 L 326.957031 46.707031 L 322.488281 42.636719 C 318.816406 39.234375 318.550781 33.5625 321.886719 29.894531 Z M 191.902344 224.867188 L 152.800781 236.675781 L 160.808594 196.507812 L 292.460938 51.246094 L 310.074219 67.191406 L 311.476562 68.460938 L 323.621094 79.46875 Z M 191.902344 224.867188 " fill-opacity="1" fill-rule="nonzero"/></svg>